<mxfile host="app.diagrams.net" modified="2023-07-26T05:52:55.666Z" agent="Mozilla/5.0 (Windows NT 10.0; Win64; x64) AppleWebKit/537.36 (KHTML, like Gecko) Chrome/114.0.0.0 Safari/537.36" etag="FJfYC2sAk0zH20KMrZKE" version="21.6.3" type="google">
  <diagram id="C5RBs43oDa-KdzZeNtuy" name="Page-1">
    <mxGraphModel grid="1" page="1" gridSize="10" guides="1" tooltips="1" connect="1" arrows="1" fold="1" pageScale="1" pageWidth="827" pageHeight="1169" math="0" shadow="0">
      <root>
        <mxCell id="WIyWlLk6GJQsqaUBKTNV-0" />
        <mxCell id="WIyWlLk6GJQsqaUBKTNV-1" parent="WIyWlLk6GJQsqaUBKTNV-0" />
        <mxCell id="BP67Da7mLbQ1aucq8AcZ-0" value="" style="rounded=0;whiteSpace=wrap;html=1;glass=0;shadow=0;dashed=1;gradientColor=none;verticalAlign=middle;dashPattern=12 12;" vertex="1" parent="WIyWlLk6GJQsqaUBKTNV-1">
          <mxGeometry x="-1310" y="-180" width="2280" height="2890" as="geometry" />
        </mxCell>
        <mxCell id="44qwIfYIs7Qlmv-L1HZN-0" value="H(1)" style="rounded=0;whiteSpace=wrap;html=1;" vertex="1" parent="WIyWlLk6GJQsqaUBKTNV-1">
          <mxGeometry x="-760" y="200" width="40" height="440" as="geometry" />
        </mxCell>
        <mxCell id="44qwIfYIs7Qlmv-L1HZN-3" value="W_Q(d/k)" style="rounded=0;whiteSpace=wrap;html=1;" vertex="1" parent="WIyWlLk6GJQsqaUBKTNV-1">
          <mxGeometry x="-400" y="40" width="440" height="40" as="geometry" />
        </mxCell>
        <mxCell id="44qwIfYIs7Qlmv-L1HZN-4" value="Q(1,1)" style="whiteSpace=wrap;html=1;aspect=fixed;fontSize=10;" vertex="1" parent="WIyWlLk6GJQsqaUBKTNV-1">
          <mxGeometry x="-400" y="200" width="40" height="40" as="geometry" />
        </mxCell>
        <mxCell id="44qwIfYIs7Qlmv-L1HZN-5" value="" style="endArrow=classic;html=1;rounded=0;" edge="1" parent="WIyWlLk6GJQsqaUBKTNV-1">
          <mxGeometry width="50" height="50" relative="1" as="geometry">
            <mxPoint x="-500" y="230" as="sourcePoint" />
            <mxPoint x="-440" y="230" as="targetPoint" />
            <Array as="points">
              <mxPoint x="-470" y="230" />
            </Array>
          </mxGeometry>
        </mxCell>
        <mxCell id="44qwIfYIs7Qlmv-L1HZN-6" value="" style="endArrow=classic;html=1;rounded=0;" edge="1" parent="WIyWlLk6GJQsqaUBKTNV-1">
          <mxGeometry width="50" height="50" relative="1" as="geometry">
            <mxPoint x="-500" y="590" as="sourcePoint" />
            <mxPoint x="-440" y="590" as="targetPoint" />
          </mxGeometry>
        </mxCell>
        <mxCell id="44qwIfYIs7Qlmv-L1HZN-7" value="" style="endArrow=classic;html=1;rounded=0;" edge="1" parent="WIyWlLk6GJQsqaUBKTNV-1">
          <mxGeometry width="50" height="50" relative="1" as="geometry">
            <mxPoint x="-500" y="470" as="sourcePoint" />
            <mxPoint x="-440" y="470" as="targetPoint" />
          </mxGeometry>
        </mxCell>
        <mxCell id="44qwIfYIs7Qlmv-L1HZN-8" value="" style="endArrow=classic;html=1;rounded=0;" edge="1" parent="WIyWlLk6GJQsqaUBKTNV-1">
          <mxGeometry width="50" height="50" relative="1" as="geometry">
            <mxPoint x="-500" y="350" as="sourcePoint" />
            <mxPoint x="-440" y="350" as="targetPoint" />
          </mxGeometry>
        </mxCell>
        <mxCell id="44qwIfYIs7Qlmv-L1HZN-10" value="" style="endArrow=classic;html=1;rounded=0;" edge="1" parent="WIyWlLk6GJQsqaUBKTNV-1">
          <mxGeometry width="50" height="50" relative="1" as="geometry">
            <mxPoint x="-361" y="110" as="sourcePoint" />
            <mxPoint x="-361" y="170" as="targetPoint" />
          </mxGeometry>
        </mxCell>
        <mxCell id="44qwIfYIs7Qlmv-L1HZN-11" value="" style="endArrow=classic;html=1;rounded=0;" edge="1" parent="WIyWlLk6GJQsqaUBKTNV-1">
          <mxGeometry width="50" height="50" relative="1" as="geometry">
            <mxPoint x="-1" y="110" as="sourcePoint" />
            <mxPoint x="-1" y="170" as="targetPoint" />
          </mxGeometry>
        </mxCell>
        <mxCell id="44qwIfYIs7Qlmv-L1HZN-12" value="" style="endArrow=classic;html=1;rounded=0;" edge="1" parent="WIyWlLk6GJQsqaUBKTNV-1">
          <mxGeometry width="50" height="50" relative="1" as="geometry">
            <mxPoint x="-121" y="110" as="sourcePoint" />
            <mxPoint x="-121" y="170" as="targetPoint" />
          </mxGeometry>
        </mxCell>
        <mxCell id="44qwIfYIs7Qlmv-L1HZN-13" value="" style="endArrow=classic;html=1;rounded=0;" edge="1" parent="WIyWlLk6GJQsqaUBKTNV-1">
          <mxGeometry width="50" height="50" relative="1" as="geometry">
            <mxPoint x="-241" y="110" as="sourcePoint" />
            <mxPoint x="-241" y="170" as="targetPoint" />
          </mxGeometry>
        </mxCell>
        <mxCell id="4T8bIbX1QtWVv7wdMEMp-1" value="H(2)" style="rounded=0;whiteSpace=wrap;html=1;" vertex="1" parent="WIyWlLk6GJQsqaUBKTNV-1">
          <mxGeometry x="-710" y="200" width="40" height="440" as="geometry" />
        </mxCell>
        <mxCell id="4T8bIbX1QtWVv7wdMEMp-2" value="H(3)" style="rounded=0;whiteSpace=wrap;html=1;" vertex="1" parent="WIyWlLk6GJQsqaUBKTNV-1">
          <mxGeometry x="-660" y="200" width="40" height="440" as="geometry" />
        </mxCell>
        <mxCell id="4T8bIbX1QtWVv7wdMEMp-3" value="H(m)" style="rounded=0;whiteSpace=wrap;html=1;" vertex="1" parent="WIyWlLk6GJQsqaUBKTNV-1">
          <mxGeometry x="-560" y="200" width="40" height="440" as="geometry" />
        </mxCell>
        <mxCell id="4T8bIbX1QtWVv7wdMEMp-4" value="" style="endArrow=none;dashed=1;html=1;dashPattern=1 3;strokeWidth=2;rounded=0;" edge="1" parent="WIyWlLk6GJQsqaUBKTNV-1">
          <mxGeometry width="50" height="50" relative="1" as="geometry">
            <mxPoint x="-614" y="420" as="sourcePoint" />
            <mxPoint x="-564" y="419.5" as="targetPoint" />
          </mxGeometry>
        </mxCell>
        <mxCell id="4T8bIbX1QtWVv7wdMEMp-8" value="W_Q(3)" style="rounded=0;whiteSpace=wrap;html=1;" vertex="1" parent="WIyWlLk6GJQsqaUBKTNV-1">
          <mxGeometry x="-400" y="-60" width="440" height="40" as="geometry" />
        </mxCell>
        <mxCell id="4T8bIbX1QtWVv7wdMEMp-9" value="W_Q(2)" style="rounded=0;whiteSpace=wrap;html=1;" vertex="1" parent="WIyWlLk6GJQsqaUBKTNV-1">
          <mxGeometry x="-400" y="-110" width="440" height="40" as="geometry" />
        </mxCell>
        <mxCell id="4T8bIbX1QtWVv7wdMEMp-10" value="W_Q(1)" style="rounded=0;whiteSpace=wrap;html=1;" vertex="1" parent="WIyWlLk6GJQsqaUBKTNV-1">
          <mxGeometry x="-400" y="-160" width="440" height="40" as="geometry" />
        </mxCell>
        <mxCell id="4T8bIbX1QtWVv7wdMEMp-11" value="" style="endArrow=none;dashed=1;html=1;dashPattern=1 3;strokeWidth=2;rounded=0;" edge="1" parent="WIyWlLk6GJQsqaUBKTNV-1">
          <mxGeometry width="50" height="50" relative="1" as="geometry">
            <mxPoint x="-180" y="-20" as="sourcePoint" />
            <mxPoint x="-180" y="39.5" as="targetPoint" />
          </mxGeometry>
        </mxCell>
        <mxCell id="4T8bIbX1QtWVv7wdMEMp-12" value="Q(1,2)" style="whiteSpace=wrap;html=1;aspect=fixed;fontSize=10;" vertex="1" parent="WIyWlLk6GJQsqaUBKTNV-1">
          <mxGeometry x="-350" y="200" width="40" height="40" as="geometry" />
        </mxCell>
        <mxCell id="4T8bIbX1QtWVv7wdMEMp-13" value="Q(1,3)" style="whiteSpace=wrap;html=1;aspect=fixed;fontSize=10;" vertex="1" parent="WIyWlLk6GJQsqaUBKTNV-1">
          <mxGeometry x="-300" y="200" width="40" height="40" as="geometry" />
        </mxCell>
        <mxCell id="4T8bIbX1QtWVv7wdMEMp-14" value="Q(2,1)" style="whiteSpace=wrap;html=1;aspect=fixed;fontSize=10;" vertex="1" parent="WIyWlLk6GJQsqaUBKTNV-1">
          <mxGeometry x="-400" y="250" width="40" height="40" as="geometry" />
        </mxCell>
        <mxCell id="4T8bIbX1QtWVv7wdMEMp-15" value="Q(3,1)" style="whiteSpace=wrap;html=1;aspect=fixed;fontSize=10;" vertex="1" parent="WIyWlLk6GJQsqaUBKTNV-1">
          <mxGeometry x="-400" y="300" width="40" height="40" as="geometry" />
        </mxCell>
        <mxCell id="4T8bIbX1QtWVv7wdMEMp-17" value="" style="endArrow=none;dashed=1;html=1;dashPattern=1 3;strokeWidth=2;rounded=0;fontSize=10;" edge="1" parent="WIyWlLk6GJQsqaUBKTNV-1">
          <mxGeometry width="50" height="50" relative="1" as="geometry">
            <mxPoint x="-380" y="590" as="sourcePoint" />
            <mxPoint x="-380.5" y="350" as="targetPoint" />
          </mxGeometry>
        </mxCell>
        <mxCell id="4T8bIbX1QtWVv7wdMEMp-18" value="Q(m,1)" style="whiteSpace=wrap;html=1;aspect=fixed;fontSize=10;" vertex="1" parent="WIyWlLk6GJQsqaUBKTNV-1">
          <mxGeometry x="-400" y="600" width="40" height="40" as="geometry" />
        </mxCell>
        <mxCell id="4T8bIbX1QtWVv7wdMEMp-19" value="" style="endArrow=none;dashed=1;html=1;dashPattern=1 3;strokeWidth=2;rounded=0;fontSize=10;" edge="1" parent="WIyWlLk6GJQsqaUBKTNV-1">
          <mxGeometry width="50" height="50" relative="1" as="geometry">
            <mxPoint x="-10" y="220" as="sourcePoint" />
            <mxPoint x="-240" y="220" as="targetPoint" />
          </mxGeometry>
        </mxCell>
        <mxCell id="4T8bIbX1QtWVv7wdMEMp-20" value="Q(1,d/k)" style="whiteSpace=wrap;html=1;aspect=fixed;fontSize=10;" vertex="1" parent="WIyWlLk6GJQsqaUBKTNV-1">
          <mxGeometry y="200" width="40" height="40" as="geometry" />
        </mxCell>
        <mxCell id="4T8bIbX1QtWVv7wdMEMp-21" value="Q(m,d/k)" style="whiteSpace=wrap;html=1;aspect=fixed;fontSize=10;" vertex="1" parent="WIyWlLk6GJQsqaUBKTNV-1">
          <mxGeometry y="600" width="40" height="40" as="geometry" />
        </mxCell>
        <mxCell id="4T8bIbX1QtWVv7wdMEMp-23" value="Q(2,2)" style="whiteSpace=wrap;html=1;aspect=fixed;fontSize=10;" vertex="1" parent="WIyWlLk6GJQsqaUBKTNV-1">
          <mxGeometry x="-350" y="250" width="40" height="40" as="geometry" />
        </mxCell>
        <mxCell id="4T8bIbX1QtWVv7wdMEMp-24" value="Q(2,3)" style="whiteSpace=wrap;html=1;aspect=fixed;fontSize=10;" vertex="1" parent="WIyWlLk6GJQsqaUBKTNV-1">
          <mxGeometry x="-300" y="250" width="40" height="40" as="geometry" />
        </mxCell>
        <mxCell id="4T8bIbX1QtWVv7wdMEMp-25" value="Q(3,2)" style="whiteSpace=wrap;html=1;aspect=fixed;fontSize=10;" vertex="1" parent="WIyWlLk6GJQsqaUBKTNV-1">
          <mxGeometry x="-350" y="300" width="40" height="40" as="geometry" />
        </mxCell>
        <mxCell id="4T8bIbX1QtWVv7wdMEMp-26" value="Q(3,3)" style="whiteSpace=wrap;html=1;aspect=fixed;fontSize=10;" vertex="1" parent="WIyWlLk6GJQsqaUBKTNV-1">
          <mxGeometry x="-300" y="300" width="40" height="40" as="geometry" />
        </mxCell>
        <mxCell id="4T8bIbX1QtWVv7wdMEMp-27" value="" style="endArrow=none;dashed=1;html=1;dashPattern=1 3;strokeWidth=2;rounded=0;fontSize=10;" edge="1" parent="WIyWlLk6GJQsqaUBKTNV-1">
          <mxGeometry width="50" height="50" relative="1" as="geometry">
            <mxPoint x="20" y="580" as="sourcePoint" />
            <mxPoint x="20" y="350" as="targetPoint" />
          </mxGeometry>
        </mxCell>
        <mxCell id="4T8bIbX1QtWVv7wdMEMp-28" value="" style="endArrow=none;dashed=1;html=1;dashPattern=1 3;strokeWidth=2;rounded=0;fontSize=10;" edge="1" parent="WIyWlLk6GJQsqaUBKTNV-1">
          <mxGeometry width="50" height="50" relative="1" as="geometry">
            <mxPoint x="-10" y="600" as="sourcePoint" />
            <mxPoint x="-250" y="340" as="targetPoint" />
          </mxGeometry>
        </mxCell>
        <mxCell id="4T8bIbX1QtWVv7wdMEMp-29" value="" style="endArrow=none;dashed=1;html=1;dashPattern=1 3;strokeWidth=2;rounded=0;fontSize=10;" edge="1" parent="WIyWlLk6GJQsqaUBKTNV-1">
          <mxGeometry width="50" height="50" relative="1" as="geometry">
            <mxPoint x="-10" y="269.5" as="sourcePoint" />
            <mxPoint x="-240" y="269.5" as="targetPoint" />
          </mxGeometry>
        </mxCell>
        <mxCell id="4T8bIbX1QtWVv7wdMEMp-30" value="" style="endArrow=none;dashed=1;html=1;dashPattern=1 3;strokeWidth=2;rounded=0;fontSize=10;" edge="1" parent="WIyWlLk6GJQsqaUBKTNV-1">
          <mxGeometry width="50" height="50" relative="1" as="geometry">
            <mxPoint x="-10" y="319.5" as="sourcePoint" />
            <mxPoint x="-240" y="319.5" as="targetPoint" />
          </mxGeometry>
        </mxCell>
        <mxCell id="4T8bIbX1QtWVv7wdMEMp-31" value="Q(2,d/k)" style="whiteSpace=wrap;html=1;aspect=fixed;fontSize=10;" vertex="1" parent="WIyWlLk6GJQsqaUBKTNV-1">
          <mxGeometry y="250" width="40" height="40" as="geometry" />
        </mxCell>
        <mxCell id="4T8bIbX1QtWVv7wdMEMp-32" value="Q(3,d/k)" style="whiteSpace=wrap;html=1;aspect=fixed;fontSize=10;" vertex="1" parent="WIyWlLk6GJQsqaUBKTNV-1">
          <mxGeometry y="300" width="40" height="40" as="geometry" />
        </mxCell>
        <mxCell id="4T8bIbX1QtWVv7wdMEMp-33" value="&lt;font style=&quot;font-size: 18px;&quot;&gt;Q(1,d/k) = [H(1)] * [W_Q(d/k)]&lt;br&gt;&amp;nbsp;Q(m,d/k) = [H(m)] * [W_Q(d/k)]&lt;br&gt;&lt;br&gt;H와 W_Q를 내적하기: &lt;br&gt;W_Q를 transpose &amp;gt; H와 요소곱 &amp;gt; 모든 요소 더하기&lt;/font&gt;" style="text;html=1;strokeColor=none;fillColor=none;align=center;verticalAlign=middle;whiteSpace=wrap;rounded=0;" vertex="1" parent="WIyWlLk6GJQsqaUBKTNV-1">
          <mxGeometry x="-390" y="663" width="460" height="107" as="geometry" />
        </mxCell>
        <mxCell id="4T8bIbX1QtWVv7wdMEMp-36" value="" style="endArrow=classic;html=1;rounded=0;" edge="1" parent="WIyWlLk6GJQsqaUBKTNV-1">
          <mxGeometry width="50" height="50" relative="1" as="geometry">
            <mxPoint x="60" y="230" as="sourcePoint" />
            <mxPoint x="120" y="230" as="targetPoint" />
            <Array as="points">
              <mxPoint x="90" y="230" />
            </Array>
          </mxGeometry>
        </mxCell>
        <mxCell id="4T8bIbX1QtWVv7wdMEMp-37" value="" style="endArrow=classic;html=1;rounded=0;" edge="1" parent="WIyWlLk6GJQsqaUBKTNV-1">
          <mxGeometry width="50" height="50" relative="1" as="geometry">
            <mxPoint x="60" y="590" as="sourcePoint" />
            <mxPoint x="120" y="590" as="targetPoint" />
          </mxGeometry>
        </mxCell>
        <mxCell id="4T8bIbX1QtWVv7wdMEMp-38" value="" style="endArrow=classic;html=1;rounded=0;" edge="1" parent="WIyWlLk6GJQsqaUBKTNV-1">
          <mxGeometry width="50" height="50" relative="1" as="geometry">
            <mxPoint x="60" y="470" as="sourcePoint" />
            <mxPoint x="120" y="470" as="targetPoint" />
          </mxGeometry>
        </mxCell>
        <mxCell id="4T8bIbX1QtWVv7wdMEMp-39" value="" style="endArrow=classic;html=1;rounded=0;" edge="1" parent="WIyWlLk6GJQsqaUBKTNV-1">
          <mxGeometry width="50" height="50" relative="1" as="geometry">
            <mxPoint x="60" y="350" as="sourcePoint" />
            <mxPoint x="120" y="350" as="targetPoint" />
          </mxGeometry>
        </mxCell>
        <mxCell id="4T8bIbX1QtWVv7wdMEMp-42" value="&lt;font style=&quot;font-size: 24px;&quot;&gt;bias Q&lt;/font&gt;" style="rounded=0;whiteSpace=wrap;html=1;" vertex="1" parent="WIyWlLk6GJQsqaUBKTNV-1">
          <mxGeometry x="150" y="40" width="80" height="50" as="geometry" />
        </mxCell>
        <mxCell id="4T8bIbX1QtWVv7wdMEMp-43" value="" style="endArrow=classic;html=1;rounded=0;" edge="1" parent="WIyWlLk6GJQsqaUBKTNV-1">
          <mxGeometry width="50" height="50" relative="1" as="geometry">
            <mxPoint x="189.5" y="110" as="sourcePoint" />
            <mxPoint x="189.5" y="170" as="targetPoint" />
          </mxGeometry>
        </mxCell>
        <mxCell id="4T8bIbX1QtWVv7wdMEMp-44" value="" style="shape=orEllipse;perimeter=ellipsePerimeter;whiteSpace=wrap;html=1;backgroundOutline=1;" vertex="1" parent="WIyWlLk6GJQsqaUBKTNV-1">
          <mxGeometry x="150" y="190" width="80" height="80" as="geometry" />
        </mxCell>
        <mxCell id="4T8bIbX1QtWVv7wdMEMp-45" value="" style="shape=orEllipse;perimeter=ellipsePerimeter;whiteSpace=wrap;html=1;backgroundOutline=1;" vertex="1" parent="WIyWlLk6GJQsqaUBKTNV-1">
          <mxGeometry x="150" y="310" width="80" height="80" as="geometry" />
        </mxCell>
        <mxCell id="4T8bIbX1QtWVv7wdMEMp-46" value="" style="shape=orEllipse;perimeter=ellipsePerimeter;whiteSpace=wrap;html=1;backgroundOutline=1;" vertex="1" parent="WIyWlLk6GJQsqaUBKTNV-1">
          <mxGeometry x="150" y="440" width="80" height="80" as="geometry" />
        </mxCell>
        <mxCell id="4T8bIbX1QtWVv7wdMEMp-47" value="" style="shape=orEllipse;perimeter=ellipsePerimeter;whiteSpace=wrap;html=1;backgroundOutline=1;" vertex="1" parent="WIyWlLk6GJQsqaUBKTNV-1">
          <mxGeometry x="150" y="550" width="80" height="80" as="geometry" />
        </mxCell>
        <mxCell id="4T8bIbX1QtWVv7wdMEMp-58" value="" style="endArrow=none;html=1;rounded=0;" edge="1" parent="WIyWlLk6GJQsqaUBKTNV-1">
          <mxGeometry width="50" height="50" relative="1" as="geometry">
            <mxPoint x="230" y="590" as="sourcePoint" />
            <mxPoint x="320" y="590" as="targetPoint" />
          </mxGeometry>
        </mxCell>
        <mxCell id="4T8bIbX1QtWVv7wdMEMp-59" value="" style="endArrow=none;html=1;rounded=0;" edge="1" parent="WIyWlLk6GJQsqaUBKTNV-1">
          <mxGeometry width="50" height="50" relative="1" as="geometry">
            <mxPoint x="230" y="479.5" as="sourcePoint" />
            <mxPoint x="320" y="479.5" as="targetPoint" />
          </mxGeometry>
        </mxCell>
        <mxCell id="4T8bIbX1QtWVv7wdMEMp-60" value="" style="endArrow=none;html=1;rounded=0;" edge="1" parent="WIyWlLk6GJQsqaUBKTNV-1">
          <mxGeometry width="50" height="50" relative="1" as="geometry">
            <mxPoint x="230" y="350" as="sourcePoint" />
            <mxPoint x="320" y="350" as="targetPoint" />
          </mxGeometry>
        </mxCell>
        <mxCell id="4T8bIbX1QtWVv7wdMEMp-61" value="" style="endArrow=none;html=1;rounded=0;" edge="1" parent="WIyWlLk6GJQsqaUBKTNV-1">
          <mxGeometry width="50" height="50" relative="1" as="geometry">
            <mxPoint x="230" y="229.5" as="sourcePoint" />
            <mxPoint x="320" y="229.5" as="targetPoint" />
          </mxGeometry>
        </mxCell>
        <mxCell id="4T8bIbX1QtWVv7wdMEMp-62" value="" style="endArrow=none;html=1;rounded=0;" edge="1" parent="WIyWlLk6GJQsqaUBKTNV-1">
          <mxGeometry width="50" height="50" relative="1" as="geometry">
            <mxPoint x="320" y="590" as="sourcePoint" />
            <mxPoint x="320" y="230" as="targetPoint" />
          </mxGeometry>
        </mxCell>
        <mxCell id="4T8bIbX1QtWVv7wdMEMp-63" value="" style="endArrow=classic;html=1;rounded=0;" edge="1" parent="WIyWlLk6GJQsqaUBKTNV-1">
          <mxGeometry width="50" height="50" relative="1" as="geometry">
            <mxPoint x="320" y="260" as="sourcePoint" />
            <mxPoint x="410" y="260" as="targetPoint" />
          </mxGeometry>
        </mxCell>
        <mxCell id="4T8bIbX1QtWVv7wdMEMp-64" value="&lt;font style=&quot;font-size: 36px;&quot;&gt;Attention&lt;/font&gt;" style="whiteSpace=wrap;html=1;aspect=fixed;" vertex="1" parent="WIyWlLk6GJQsqaUBKTNV-1">
          <mxGeometry x="420" y="200" width="390" height="390" as="geometry" />
        </mxCell>
        <mxCell id="4T8bIbX1QtWVv7wdMEMp-65" value="&lt;font style=&quot;font-size: 24px;&quot;&gt;Q&lt;/font&gt;" style="text;html=1;strokeColor=none;fillColor=none;align=center;verticalAlign=middle;whiteSpace=wrap;rounded=0;" vertex="1" parent="WIyWlLk6GJQsqaUBKTNV-1">
          <mxGeometry x="414" y="240" width="60" height="30" as="geometry" />
        </mxCell>
        <mxCell id="4T8bIbX1QtWVv7wdMEMp-66" value="&lt;font style=&quot;font-size: 24px;&quot;&gt;K&lt;/font&gt;" style="text;html=1;strokeColor=none;fillColor=none;align=center;verticalAlign=middle;whiteSpace=wrap;rounded=0;" vertex="1" parent="WIyWlLk6GJQsqaUBKTNV-1">
          <mxGeometry x="414" y="490" width="60" height="30" as="geometry" />
        </mxCell>
        <mxCell id="4T8bIbX1QtWVv7wdMEMp-67" value="&lt;font style=&quot;font-size: 24px;&quot;&gt;V&lt;/font&gt;" style="text;html=1;strokeColor=none;fillColor=none;align=center;verticalAlign=middle;whiteSpace=wrap;rounded=0;" vertex="1" parent="WIyWlLk6GJQsqaUBKTNV-1">
          <mxGeometry x="600" y="550" width="60" height="30" as="geometry" />
        </mxCell>
        <mxCell id="4T8bIbX1QtWVv7wdMEMp-68" value="" style="endArrow=classic;html=1;rounded=0;" edge="1" parent="WIyWlLk6GJQsqaUBKTNV-1">
          <mxGeometry width="50" height="50" relative="1" as="geometry">
            <mxPoint x="360" y="505" as="sourcePoint" />
            <mxPoint x="410" y="504.5" as="targetPoint" />
          </mxGeometry>
        </mxCell>
        <mxCell id="4T8bIbX1QtWVv7wdMEMp-69" value="H(1)" style="rounded=0;whiteSpace=wrap;html=1;" vertex="1" parent="WIyWlLk6GJQsqaUBKTNV-1">
          <mxGeometry x="-720" y="1180" width="40" height="440" as="geometry" />
        </mxCell>
        <mxCell id="4T8bIbX1QtWVv7wdMEMp-70" value="W_K(d/k)" style="rounded=0;whiteSpace=wrap;html=1;" vertex="1" parent="WIyWlLk6GJQsqaUBKTNV-1">
          <mxGeometry x="-360" y="1020" width="440" height="40" as="geometry" />
        </mxCell>
        <mxCell id="4T8bIbX1QtWVv7wdMEMp-71" value="K(1,1)" style="whiteSpace=wrap;html=1;aspect=fixed;fontSize=10;" vertex="1" parent="WIyWlLk6GJQsqaUBKTNV-1">
          <mxGeometry x="-360" y="1180" width="40" height="40" as="geometry" />
        </mxCell>
        <mxCell id="4T8bIbX1QtWVv7wdMEMp-72" value="" style="endArrow=classic;html=1;rounded=0;" edge="1" parent="WIyWlLk6GJQsqaUBKTNV-1">
          <mxGeometry width="50" height="50" relative="1" as="geometry">
            <mxPoint x="-460" y="1210" as="sourcePoint" />
            <mxPoint x="-400" y="1210" as="targetPoint" />
            <Array as="points">
              <mxPoint x="-430" y="1210" />
            </Array>
          </mxGeometry>
        </mxCell>
        <mxCell id="4T8bIbX1QtWVv7wdMEMp-73" value="" style="endArrow=classic;html=1;rounded=0;" edge="1" parent="WIyWlLk6GJQsqaUBKTNV-1">
          <mxGeometry width="50" height="50" relative="1" as="geometry">
            <mxPoint x="-460" y="1570" as="sourcePoint" />
            <mxPoint x="-400" y="1570" as="targetPoint" />
          </mxGeometry>
        </mxCell>
        <mxCell id="4T8bIbX1QtWVv7wdMEMp-74" value="" style="endArrow=classic;html=1;rounded=0;" edge="1" parent="WIyWlLk6GJQsqaUBKTNV-1">
          <mxGeometry width="50" height="50" relative="1" as="geometry">
            <mxPoint x="-460" y="1450" as="sourcePoint" />
            <mxPoint x="-400" y="1450" as="targetPoint" />
          </mxGeometry>
        </mxCell>
        <mxCell id="4T8bIbX1QtWVv7wdMEMp-75" value="" style="endArrow=classic;html=1;rounded=0;" edge="1" parent="WIyWlLk6GJQsqaUBKTNV-1">
          <mxGeometry width="50" height="50" relative="1" as="geometry">
            <mxPoint x="-460" y="1330" as="sourcePoint" />
            <mxPoint x="-400" y="1330" as="targetPoint" />
          </mxGeometry>
        </mxCell>
        <mxCell id="4T8bIbX1QtWVv7wdMEMp-76" value="" style="endArrow=classic;html=1;rounded=0;" edge="1" parent="WIyWlLk6GJQsqaUBKTNV-1">
          <mxGeometry width="50" height="50" relative="1" as="geometry">
            <mxPoint x="-321" y="1090" as="sourcePoint" />
            <mxPoint x="-321" y="1150" as="targetPoint" />
          </mxGeometry>
        </mxCell>
        <mxCell id="4T8bIbX1QtWVv7wdMEMp-77" value="" style="endArrow=classic;html=1;rounded=0;" edge="1" parent="WIyWlLk6GJQsqaUBKTNV-1">
          <mxGeometry width="50" height="50" relative="1" as="geometry">
            <mxPoint x="39" y="1090" as="sourcePoint" />
            <mxPoint x="39" y="1150" as="targetPoint" />
          </mxGeometry>
        </mxCell>
        <mxCell id="4T8bIbX1QtWVv7wdMEMp-78" value="" style="endArrow=classic;html=1;rounded=0;" edge="1" parent="WIyWlLk6GJQsqaUBKTNV-1">
          <mxGeometry width="50" height="50" relative="1" as="geometry">
            <mxPoint x="-81" y="1090" as="sourcePoint" />
            <mxPoint x="-81" y="1150" as="targetPoint" />
          </mxGeometry>
        </mxCell>
        <mxCell id="4T8bIbX1QtWVv7wdMEMp-79" value="" style="endArrow=classic;html=1;rounded=0;" edge="1" parent="WIyWlLk6GJQsqaUBKTNV-1">
          <mxGeometry width="50" height="50" relative="1" as="geometry">
            <mxPoint x="-201" y="1090" as="sourcePoint" />
            <mxPoint x="-201" y="1150" as="targetPoint" />
          </mxGeometry>
        </mxCell>
        <mxCell id="4T8bIbX1QtWVv7wdMEMp-80" value="H(2)" style="rounded=0;whiteSpace=wrap;html=1;" vertex="1" parent="WIyWlLk6GJQsqaUBKTNV-1">
          <mxGeometry x="-670" y="1180" width="40" height="440" as="geometry" />
        </mxCell>
        <mxCell id="4T8bIbX1QtWVv7wdMEMp-81" value="H(3)" style="rounded=0;whiteSpace=wrap;html=1;" vertex="1" parent="WIyWlLk6GJQsqaUBKTNV-1">
          <mxGeometry x="-620" y="1180" width="40" height="440" as="geometry" />
        </mxCell>
        <mxCell id="4T8bIbX1QtWVv7wdMEMp-82" value="H(m)" style="rounded=0;whiteSpace=wrap;html=1;" vertex="1" parent="WIyWlLk6GJQsqaUBKTNV-1">
          <mxGeometry x="-520" y="1180" width="40" height="440" as="geometry" />
        </mxCell>
        <mxCell id="4T8bIbX1QtWVv7wdMEMp-83" value="" style="endArrow=none;dashed=1;html=1;dashPattern=1 3;strokeWidth=2;rounded=0;" edge="1" parent="WIyWlLk6GJQsqaUBKTNV-1">
          <mxGeometry width="50" height="50" relative="1" as="geometry">
            <mxPoint x="-574" y="1400" as="sourcePoint" />
            <mxPoint x="-524" y="1399.5" as="targetPoint" />
          </mxGeometry>
        </mxCell>
        <mxCell id="4T8bIbX1QtWVv7wdMEMp-84" value="&lt;font style=&quot;font-size: 18px;&quot;&gt;&lt;b&gt;* H(m) : H행렬 m행의 요소 = d개&lt;br&gt;* W_K(d/k) : W_K 행렬 d/k열의 요소 = d개&lt;/b&gt;&lt;/font&gt;" style="text;html=1;strokeColor=none;fillColor=none;align=center;verticalAlign=middle;whiteSpace=wrap;rounded=0;" vertex="1" parent="WIyWlLk6GJQsqaUBKTNV-1">
          <mxGeometry x="-730" y="1650" width="350" height="50" as="geometry" />
        </mxCell>
        <mxCell id="4T8bIbX1QtWVv7wdMEMp-85" value="W_K(3)" style="rounded=0;whiteSpace=wrap;html=1;" vertex="1" parent="WIyWlLk6GJQsqaUBKTNV-1">
          <mxGeometry x="-360" y="920" width="440" height="40" as="geometry" />
        </mxCell>
        <mxCell id="4T8bIbX1QtWVv7wdMEMp-86" value="W_K(2)" style="rounded=0;whiteSpace=wrap;html=1;" vertex="1" parent="WIyWlLk6GJQsqaUBKTNV-1">
          <mxGeometry x="-360" y="870" width="440" height="40" as="geometry" />
        </mxCell>
        <mxCell id="4T8bIbX1QtWVv7wdMEMp-87" value="W_K(1)" style="rounded=0;whiteSpace=wrap;html=1;" vertex="1" parent="WIyWlLk6GJQsqaUBKTNV-1">
          <mxGeometry x="-360" y="820" width="440" height="40" as="geometry" />
        </mxCell>
        <mxCell id="4T8bIbX1QtWVv7wdMEMp-88" value="" style="endArrow=none;dashed=1;html=1;dashPattern=1 3;strokeWidth=2;rounded=0;" edge="1" parent="WIyWlLk6GJQsqaUBKTNV-1">
          <mxGeometry width="50" height="50" relative="1" as="geometry">
            <mxPoint x="-140" y="960" as="sourcePoint" />
            <mxPoint x="-140" y="1019.5" as="targetPoint" />
          </mxGeometry>
        </mxCell>
        <mxCell id="4T8bIbX1QtWVv7wdMEMp-89" value="K(1,2)" style="whiteSpace=wrap;html=1;aspect=fixed;fontSize=10;" vertex="1" parent="WIyWlLk6GJQsqaUBKTNV-1">
          <mxGeometry x="-310" y="1180" width="40" height="40" as="geometry" />
        </mxCell>
        <mxCell id="4T8bIbX1QtWVv7wdMEMp-90" value="K(1,3)" style="whiteSpace=wrap;html=1;aspect=fixed;fontSize=10;" vertex="1" parent="WIyWlLk6GJQsqaUBKTNV-1">
          <mxGeometry x="-260" y="1180" width="40" height="40" as="geometry" />
        </mxCell>
        <mxCell id="4T8bIbX1QtWVv7wdMEMp-91" value="K(2,1)" style="whiteSpace=wrap;html=1;aspect=fixed;fontSize=10;" vertex="1" parent="WIyWlLk6GJQsqaUBKTNV-1">
          <mxGeometry x="-360" y="1230" width="40" height="40" as="geometry" />
        </mxCell>
        <mxCell id="4T8bIbX1QtWVv7wdMEMp-92" value="K(3,1)" style="whiteSpace=wrap;html=1;aspect=fixed;fontSize=10;" vertex="1" parent="WIyWlLk6GJQsqaUBKTNV-1">
          <mxGeometry x="-360" y="1280" width="40" height="40" as="geometry" />
        </mxCell>
        <mxCell id="4T8bIbX1QtWVv7wdMEMp-93" value="" style="endArrow=none;dashed=1;html=1;dashPattern=1 3;strokeWidth=2;rounded=0;fontSize=10;" edge="1" parent="WIyWlLk6GJQsqaUBKTNV-1">
          <mxGeometry width="50" height="50" relative="1" as="geometry">
            <mxPoint x="-340" y="1570" as="sourcePoint" />
            <mxPoint x="-340.5" y="1330" as="targetPoint" />
          </mxGeometry>
        </mxCell>
        <mxCell id="4T8bIbX1QtWVv7wdMEMp-94" value="Q(m,1)" style="whiteSpace=wrap;html=1;aspect=fixed;fontSize=10;" vertex="1" parent="WIyWlLk6GJQsqaUBKTNV-1">
          <mxGeometry x="-360" y="1580" width="40" height="40" as="geometry" />
        </mxCell>
        <mxCell id="4T8bIbX1QtWVv7wdMEMp-95" value="" style="endArrow=none;dashed=1;html=1;dashPattern=1 3;strokeWidth=2;rounded=0;fontSize=10;" edge="1" parent="WIyWlLk6GJQsqaUBKTNV-1">
          <mxGeometry width="50" height="50" relative="1" as="geometry">
            <mxPoint x="30" y="1200" as="sourcePoint" />
            <mxPoint x="-200" y="1200" as="targetPoint" />
          </mxGeometry>
        </mxCell>
        <mxCell id="4T8bIbX1QtWVv7wdMEMp-96" value="K(1,d/k)" style="whiteSpace=wrap;html=1;aspect=fixed;fontSize=10;" vertex="1" parent="WIyWlLk6GJQsqaUBKTNV-1">
          <mxGeometry x="40" y="1180" width="40" height="40" as="geometry" />
        </mxCell>
        <mxCell id="4T8bIbX1QtWVv7wdMEMp-97" value="Q(m,d/k)" style="whiteSpace=wrap;html=1;aspect=fixed;fontSize=10;" vertex="1" parent="WIyWlLk6GJQsqaUBKTNV-1">
          <mxGeometry x="40" y="1580" width="40" height="40" as="geometry" />
        </mxCell>
        <mxCell id="4T8bIbX1QtWVv7wdMEMp-99" value="K(2,2)" style="whiteSpace=wrap;html=1;aspect=fixed;fontSize=10;" vertex="1" parent="WIyWlLk6GJQsqaUBKTNV-1">
          <mxGeometry x="-310" y="1230" width="40" height="40" as="geometry" />
        </mxCell>
        <mxCell id="4T8bIbX1QtWVv7wdMEMp-100" value="K(2,3)" style="whiteSpace=wrap;html=1;aspect=fixed;fontSize=10;" vertex="1" parent="WIyWlLk6GJQsqaUBKTNV-1">
          <mxGeometry x="-260" y="1230" width="40" height="40" as="geometry" />
        </mxCell>
        <mxCell id="4T8bIbX1QtWVv7wdMEMp-101" value="K(3,2)" style="whiteSpace=wrap;html=1;aspect=fixed;fontSize=10;" vertex="1" parent="WIyWlLk6GJQsqaUBKTNV-1">
          <mxGeometry x="-310" y="1280" width="40" height="40" as="geometry" />
        </mxCell>
        <mxCell id="4T8bIbX1QtWVv7wdMEMp-102" value="K(3,3)" style="whiteSpace=wrap;html=1;aspect=fixed;fontSize=10;" vertex="1" parent="WIyWlLk6GJQsqaUBKTNV-1">
          <mxGeometry x="-260" y="1280" width="40" height="40" as="geometry" />
        </mxCell>
        <mxCell id="4T8bIbX1QtWVv7wdMEMp-103" value="" style="endArrow=none;dashed=1;html=1;dashPattern=1 3;strokeWidth=2;rounded=0;fontSize=10;" edge="1" parent="WIyWlLk6GJQsqaUBKTNV-1">
          <mxGeometry width="50" height="50" relative="1" as="geometry">
            <mxPoint x="60" y="1560" as="sourcePoint" />
            <mxPoint x="60" y="1330" as="targetPoint" />
          </mxGeometry>
        </mxCell>
        <mxCell id="4T8bIbX1QtWVv7wdMEMp-104" value="" style="endArrow=none;dashed=1;html=1;dashPattern=1 3;strokeWidth=2;rounded=0;fontSize=10;" edge="1" parent="WIyWlLk6GJQsqaUBKTNV-1">
          <mxGeometry width="50" height="50" relative="1" as="geometry">
            <mxPoint x="30" y="1580" as="sourcePoint" />
            <mxPoint x="-210" y="1320" as="targetPoint" />
          </mxGeometry>
        </mxCell>
        <mxCell id="4T8bIbX1QtWVv7wdMEMp-105" value="" style="endArrow=none;dashed=1;html=1;dashPattern=1 3;strokeWidth=2;rounded=0;fontSize=10;" edge="1" parent="WIyWlLk6GJQsqaUBKTNV-1">
          <mxGeometry width="50" height="50" relative="1" as="geometry">
            <mxPoint x="30" y="1249.5" as="sourcePoint" />
            <mxPoint x="-200" y="1249.5" as="targetPoint" />
          </mxGeometry>
        </mxCell>
        <mxCell id="4T8bIbX1QtWVv7wdMEMp-106" value="" style="endArrow=none;dashed=1;html=1;dashPattern=1 3;strokeWidth=2;rounded=0;fontSize=10;" edge="1" parent="WIyWlLk6GJQsqaUBKTNV-1">
          <mxGeometry width="50" height="50" relative="1" as="geometry">
            <mxPoint x="30" y="1299.5" as="sourcePoint" />
            <mxPoint x="-200" y="1299.5" as="targetPoint" />
          </mxGeometry>
        </mxCell>
        <mxCell id="4T8bIbX1QtWVv7wdMEMp-107" value="K(2,d/k)" style="whiteSpace=wrap;html=1;aspect=fixed;fontSize=10;" vertex="1" parent="WIyWlLk6GJQsqaUBKTNV-1">
          <mxGeometry x="40" y="1230" width="40" height="40" as="geometry" />
        </mxCell>
        <mxCell id="4T8bIbX1QtWVv7wdMEMp-108" value="K(3,d/k)" style="whiteSpace=wrap;html=1;aspect=fixed;fontSize=10;" vertex="1" parent="WIyWlLk6GJQsqaUBKTNV-1">
          <mxGeometry x="40" y="1280" width="40" height="40" as="geometry" />
        </mxCell>
        <mxCell id="4T8bIbX1QtWVv7wdMEMp-109" value="&lt;font style=&quot;font-size: 18px;&quot;&gt;K(1,d/k) = [H(1)] * [W_K(d/k)]&lt;br&gt;&amp;nbsp;K(m,d/k) = [H(m)] * [W_K(d/k)]&lt;br&gt;&lt;br&gt;H와 W_K를 내적하기: &lt;br&gt;W_K를 transpose &amp;gt; H와 요소곱 &amp;gt; 모든 요소 더하기&lt;/font&gt;" style="text;html=1;strokeColor=none;fillColor=none;align=center;verticalAlign=middle;whiteSpace=wrap;rounded=0;" vertex="1" parent="WIyWlLk6GJQsqaUBKTNV-1">
          <mxGeometry x="-350" y="1643" width="460" height="107" as="geometry" />
        </mxCell>
        <mxCell id="4T8bIbX1QtWVv7wdMEMp-110" value="" style="endArrow=classic;html=1;rounded=0;" edge="1" parent="WIyWlLk6GJQsqaUBKTNV-1">
          <mxGeometry width="50" height="50" relative="1" as="geometry">
            <mxPoint x="100" y="1210" as="sourcePoint" />
            <mxPoint x="160" y="1210" as="targetPoint" />
            <Array as="points">
              <mxPoint x="130" y="1210" />
            </Array>
          </mxGeometry>
        </mxCell>
        <mxCell id="4T8bIbX1QtWVv7wdMEMp-111" value="" style="endArrow=classic;html=1;rounded=0;" edge="1" parent="WIyWlLk6GJQsqaUBKTNV-1">
          <mxGeometry width="50" height="50" relative="1" as="geometry">
            <mxPoint x="100" y="1570" as="sourcePoint" />
            <mxPoint x="160" y="1570" as="targetPoint" />
          </mxGeometry>
        </mxCell>
        <mxCell id="4T8bIbX1QtWVv7wdMEMp-112" value="" style="endArrow=classic;html=1;rounded=0;" edge="1" parent="WIyWlLk6GJQsqaUBKTNV-1">
          <mxGeometry width="50" height="50" relative="1" as="geometry">
            <mxPoint x="100" y="1450" as="sourcePoint" />
            <mxPoint x="160" y="1450" as="targetPoint" />
          </mxGeometry>
        </mxCell>
        <mxCell id="4T8bIbX1QtWVv7wdMEMp-113" value="" style="endArrow=classic;html=1;rounded=0;" edge="1" parent="WIyWlLk6GJQsqaUBKTNV-1">
          <mxGeometry width="50" height="50" relative="1" as="geometry">
            <mxPoint x="100" y="1330" as="sourcePoint" />
            <mxPoint x="160" y="1330" as="targetPoint" />
          </mxGeometry>
        </mxCell>
        <mxCell id="4T8bIbX1QtWVv7wdMEMp-114" value="&lt;font style=&quot;font-size: 24px;&quot;&gt;bias K&lt;/font&gt;" style="rounded=0;whiteSpace=wrap;html=1;" vertex="1" parent="WIyWlLk6GJQsqaUBKTNV-1">
          <mxGeometry x="190" y="1020" width="80" height="50" as="geometry" />
        </mxCell>
        <mxCell id="4T8bIbX1QtWVv7wdMEMp-115" value="" style="endArrow=classic;html=1;rounded=0;" edge="1" parent="WIyWlLk6GJQsqaUBKTNV-1">
          <mxGeometry width="50" height="50" relative="1" as="geometry">
            <mxPoint x="229.5" y="1090" as="sourcePoint" />
            <mxPoint x="229.5" y="1150" as="targetPoint" />
          </mxGeometry>
        </mxCell>
        <mxCell id="4T8bIbX1QtWVv7wdMEMp-116" value="" style="shape=orEllipse;perimeter=ellipsePerimeter;whiteSpace=wrap;html=1;backgroundOutline=1;" vertex="1" parent="WIyWlLk6GJQsqaUBKTNV-1">
          <mxGeometry x="190" y="1170" width="80" height="80" as="geometry" />
        </mxCell>
        <mxCell id="4T8bIbX1QtWVv7wdMEMp-117" value="" style="shape=orEllipse;perimeter=ellipsePerimeter;whiteSpace=wrap;html=1;backgroundOutline=1;" vertex="1" parent="WIyWlLk6GJQsqaUBKTNV-1">
          <mxGeometry x="190" y="1290" width="80" height="80" as="geometry" />
        </mxCell>
        <mxCell id="4T8bIbX1QtWVv7wdMEMp-118" value="" style="shape=orEllipse;perimeter=ellipsePerimeter;whiteSpace=wrap;html=1;backgroundOutline=1;" vertex="1" parent="WIyWlLk6GJQsqaUBKTNV-1">
          <mxGeometry x="190" y="1420" width="80" height="80" as="geometry" />
        </mxCell>
        <mxCell id="4T8bIbX1QtWVv7wdMEMp-119" value="" style="shape=orEllipse;perimeter=ellipsePerimeter;whiteSpace=wrap;html=1;backgroundOutline=1;" vertex="1" parent="WIyWlLk6GJQsqaUBKTNV-1">
          <mxGeometry x="190" y="1530" width="80" height="80" as="geometry" />
        </mxCell>
        <mxCell id="4T8bIbX1QtWVv7wdMEMp-120" value="" style="endArrow=none;html=1;rounded=0;" edge="1" parent="WIyWlLk6GJQsqaUBKTNV-1">
          <mxGeometry width="50" height="50" relative="1" as="geometry">
            <mxPoint x="270" y="1570" as="sourcePoint" />
            <mxPoint x="360" y="1570" as="targetPoint" />
          </mxGeometry>
        </mxCell>
        <mxCell id="4T8bIbX1QtWVv7wdMEMp-121" value="" style="endArrow=none;html=1;rounded=0;" edge="1" parent="WIyWlLk6GJQsqaUBKTNV-1">
          <mxGeometry width="50" height="50" relative="1" as="geometry">
            <mxPoint x="270" y="1459.5" as="sourcePoint" />
            <mxPoint x="360" y="1459.5" as="targetPoint" />
          </mxGeometry>
        </mxCell>
        <mxCell id="4T8bIbX1QtWVv7wdMEMp-122" value="" style="endArrow=none;html=1;rounded=0;" edge="1" parent="WIyWlLk6GJQsqaUBKTNV-1">
          <mxGeometry width="50" height="50" relative="1" as="geometry">
            <mxPoint x="270" y="1330" as="sourcePoint" />
            <mxPoint x="360" y="1330" as="targetPoint" />
          </mxGeometry>
        </mxCell>
        <mxCell id="4T8bIbX1QtWVv7wdMEMp-123" value="" style="endArrow=none;html=1;rounded=0;" edge="1" parent="WIyWlLk6GJQsqaUBKTNV-1">
          <mxGeometry width="50" height="50" relative="1" as="geometry">
            <mxPoint x="270" y="1209.5" as="sourcePoint" />
            <mxPoint x="360" y="1209.5" as="targetPoint" />
          </mxGeometry>
        </mxCell>
        <mxCell id="4T8bIbX1QtWVv7wdMEMp-124" value="" style="endArrow=none;html=1;rounded=0;" edge="1" parent="WIyWlLk6GJQsqaUBKTNV-1">
          <mxGeometry width="50" height="50" relative="1" as="geometry">
            <mxPoint x="360" y="1570" as="sourcePoint" />
            <mxPoint x="360" y="1210" as="targetPoint" />
          </mxGeometry>
        </mxCell>
        <mxCell id="4T8bIbX1QtWVv7wdMEMp-125" value="" style="endArrow=none;html=1;rounded=0;" edge="1" parent="WIyWlLk6GJQsqaUBKTNV-1">
          <mxGeometry width="50" height="50" relative="1" as="geometry">
            <mxPoint x="360" y="1210" as="sourcePoint" />
            <mxPoint x="360" y="504" as="targetPoint" />
          </mxGeometry>
        </mxCell>
        <mxCell id="4T8bIbX1QtWVv7wdMEMp-126" value="H(1)" style="rounded=0;whiteSpace=wrap;html=1;" vertex="1" parent="WIyWlLk6GJQsqaUBKTNV-1">
          <mxGeometry x="-710" y="2130" width="40" height="440" as="geometry" />
        </mxCell>
        <mxCell id="4T8bIbX1QtWVv7wdMEMp-127" value="W_V(d/k)" style="rounded=0;whiteSpace=wrap;html=1;" vertex="1" parent="WIyWlLk6GJQsqaUBKTNV-1">
          <mxGeometry x="-350" y="1970" width="440" height="40" as="geometry" />
        </mxCell>
        <mxCell id="4T8bIbX1QtWVv7wdMEMp-128" value="V(1,1)" style="whiteSpace=wrap;html=1;aspect=fixed;fontSize=10;" vertex="1" parent="WIyWlLk6GJQsqaUBKTNV-1">
          <mxGeometry x="-350" y="2130" width="40" height="40" as="geometry" />
        </mxCell>
        <mxCell id="4T8bIbX1QtWVv7wdMEMp-129" value="" style="endArrow=classic;html=1;rounded=0;" edge="1" parent="WIyWlLk6GJQsqaUBKTNV-1">
          <mxGeometry width="50" height="50" relative="1" as="geometry">
            <mxPoint x="-450" y="2160" as="sourcePoint" />
            <mxPoint x="-390" y="2160" as="targetPoint" />
            <Array as="points">
              <mxPoint x="-420" y="2160" />
            </Array>
          </mxGeometry>
        </mxCell>
        <mxCell id="4T8bIbX1QtWVv7wdMEMp-130" value="" style="endArrow=classic;html=1;rounded=0;" edge="1" parent="WIyWlLk6GJQsqaUBKTNV-1">
          <mxGeometry width="50" height="50" relative="1" as="geometry">
            <mxPoint x="-450" y="2520" as="sourcePoint" />
            <mxPoint x="-390" y="2520" as="targetPoint" />
          </mxGeometry>
        </mxCell>
        <mxCell id="4T8bIbX1QtWVv7wdMEMp-131" value="" style="endArrow=classic;html=1;rounded=0;" edge="1" parent="WIyWlLk6GJQsqaUBKTNV-1">
          <mxGeometry width="50" height="50" relative="1" as="geometry">
            <mxPoint x="-450" y="2400" as="sourcePoint" />
            <mxPoint x="-390" y="2400" as="targetPoint" />
          </mxGeometry>
        </mxCell>
        <mxCell id="4T8bIbX1QtWVv7wdMEMp-132" value="" style="endArrow=classic;html=1;rounded=0;" edge="1" parent="WIyWlLk6GJQsqaUBKTNV-1">
          <mxGeometry width="50" height="50" relative="1" as="geometry">
            <mxPoint x="-450" y="2280" as="sourcePoint" />
            <mxPoint x="-390" y="2280" as="targetPoint" />
          </mxGeometry>
        </mxCell>
        <mxCell id="4T8bIbX1QtWVv7wdMEMp-133" value="" style="endArrow=classic;html=1;rounded=0;" edge="1" parent="WIyWlLk6GJQsqaUBKTNV-1">
          <mxGeometry width="50" height="50" relative="1" as="geometry">
            <mxPoint x="-311" y="2040" as="sourcePoint" />
            <mxPoint x="-311" y="2100" as="targetPoint" />
          </mxGeometry>
        </mxCell>
        <mxCell id="4T8bIbX1QtWVv7wdMEMp-134" value="" style="endArrow=classic;html=1;rounded=0;" edge="1" parent="WIyWlLk6GJQsqaUBKTNV-1">
          <mxGeometry width="50" height="50" relative="1" as="geometry">
            <mxPoint x="49" y="2040" as="sourcePoint" />
            <mxPoint x="49" y="2100" as="targetPoint" />
          </mxGeometry>
        </mxCell>
        <mxCell id="4T8bIbX1QtWVv7wdMEMp-135" value="" style="endArrow=classic;html=1;rounded=0;" edge="1" parent="WIyWlLk6GJQsqaUBKTNV-1">
          <mxGeometry width="50" height="50" relative="1" as="geometry">
            <mxPoint x="-71" y="2040" as="sourcePoint" />
            <mxPoint x="-71" y="2100" as="targetPoint" />
          </mxGeometry>
        </mxCell>
        <mxCell id="4T8bIbX1QtWVv7wdMEMp-136" value="" style="endArrow=classic;html=1;rounded=0;" edge="1" parent="WIyWlLk6GJQsqaUBKTNV-1">
          <mxGeometry width="50" height="50" relative="1" as="geometry">
            <mxPoint x="-191" y="2040" as="sourcePoint" />
            <mxPoint x="-191" y="2100" as="targetPoint" />
          </mxGeometry>
        </mxCell>
        <mxCell id="4T8bIbX1QtWVv7wdMEMp-137" value="H(2)" style="rounded=0;whiteSpace=wrap;html=1;" vertex="1" parent="WIyWlLk6GJQsqaUBKTNV-1">
          <mxGeometry x="-660" y="2130" width="40" height="440" as="geometry" />
        </mxCell>
        <mxCell id="4T8bIbX1QtWVv7wdMEMp-191" value="" style="edgeStyle=orthogonalEdgeStyle;rounded=0;orthogonalLoop=1;jettySize=auto;html=1;" edge="1" parent="WIyWlLk6GJQsqaUBKTNV-1" source="4T8bIbX1QtWVv7wdMEMp-138" target="4T8bIbX1QtWVv7wdMEMp-184">
          <mxGeometry relative="1" as="geometry" />
        </mxCell>
        <mxCell id="4T8bIbX1QtWVv7wdMEMp-138" value="H(3)" style="rounded=0;whiteSpace=wrap;html=1;" vertex="1" parent="WIyWlLk6GJQsqaUBKTNV-1">
          <mxGeometry x="-610" y="2130" width="40" height="440" as="geometry" />
        </mxCell>
        <mxCell id="4T8bIbX1QtWVv7wdMEMp-139" value="H(m)" style="rounded=0;whiteSpace=wrap;html=1;" vertex="1" parent="WIyWlLk6GJQsqaUBKTNV-1">
          <mxGeometry x="-510" y="2130" width="40" height="440" as="geometry" />
        </mxCell>
        <mxCell id="4T8bIbX1QtWVv7wdMEMp-140" value="" style="endArrow=none;dashed=1;html=1;dashPattern=1 3;strokeWidth=2;rounded=0;" edge="1" parent="WIyWlLk6GJQsqaUBKTNV-1">
          <mxGeometry width="50" height="50" relative="1" as="geometry">
            <mxPoint x="-564" y="2350" as="sourcePoint" />
            <mxPoint x="-514" y="2349.5" as="targetPoint" />
          </mxGeometry>
        </mxCell>
        <mxCell id="4T8bIbX1QtWVv7wdMEMp-142" value="W_V(3)" style="rounded=0;whiteSpace=wrap;html=1;" vertex="1" parent="WIyWlLk6GJQsqaUBKTNV-1">
          <mxGeometry x="-350" y="1870" width="440" height="40" as="geometry" />
        </mxCell>
        <mxCell id="4T8bIbX1QtWVv7wdMEMp-143" value="W_V(2)" style="rounded=0;whiteSpace=wrap;html=1;" vertex="1" parent="WIyWlLk6GJQsqaUBKTNV-1">
          <mxGeometry x="-350" y="1820" width="440" height="40" as="geometry" />
        </mxCell>
        <mxCell id="4T8bIbX1QtWVv7wdMEMp-144" value="W_V(1)" style="rounded=0;whiteSpace=wrap;html=1;" vertex="1" parent="WIyWlLk6GJQsqaUBKTNV-1">
          <mxGeometry x="-350" y="1770" width="440" height="40" as="geometry" />
        </mxCell>
        <mxCell id="4T8bIbX1QtWVv7wdMEMp-145" value="" style="endArrow=none;dashed=1;html=1;dashPattern=1 3;strokeWidth=2;rounded=0;" edge="1" parent="WIyWlLk6GJQsqaUBKTNV-1">
          <mxGeometry width="50" height="50" relative="1" as="geometry">
            <mxPoint x="-130" y="1910" as="sourcePoint" />
            <mxPoint x="-130" y="1969.5" as="targetPoint" />
          </mxGeometry>
        </mxCell>
        <mxCell id="4T8bIbX1QtWVv7wdMEMp-146" value="V(1,2)" style="whiteSpace=wrap;html=1;aspect=fixed;fontSize=10;" vertex="1" parent="WIyWlLk6GJQsqaUBKTNV-1">
          <mxGeometry x="-300" y="2130" width="40" height="40" as="geometry" />
        </mxCell>
        <mxCell id="4T8bIbX1QtWVv7wdMEMp-147" value="V(1,3)" style="whiteSpace=wrap;html=1;aspect=fixed;fontSize=10;" vertex="1" parent="WIyWlLk6GJQsqaUBKTNV-1">
          <mxGeometry x="-250" y="2130" width="40" height="40" as="geometry" />
        </mxCell>
        <mxCell id="4T8bIbX1QtWVv7wdMEMp-148" value="V(2,1)" style="whiteSpace=wrap;html=1;aspect=fixed;fontSize=10;" vertex="1" parent="WIyWlLk6GJQsqaUBKTNV-1">
          <mxGeometry x="-350" y="2180" width="40" height="40" as="geometry" />
        </mxCell>
        <mxCell id="4T8bIbX1QtWVv7wdMEMp-149" value="V(3,1)" style="whiteSpace=wrap;html=1;aspect=fixed;fontSize=10;" vertex="1" parent="WIyWlLk6GJQsqaUBKTNV-1">
          <mxGeometry x="-350" y="2230" width="40" height="40" as="geometry" />
        </mxCell>
        <mxCell id="4T8bIbX1QtWVv7wdMEMp-150" value="" style="endArrow=none;dashed=1;html=1;dashPattern=1 3;strokeWidth=2;rounded=0;fontSize=10;" edge="1" parent="WIyWlLk6GJQsqaUBKTNV-1">
          <mxGeometry width="50" height="50" relative="1" as="geometry">
            <mxPoint x="-330" y="2520" as="sourcePoint" />
            <mxPoint x="-330.5" y="2280" as="targetPoint" />
          </mxGeometry>
        </mxCell>
        <mxCell id="4T8bIbX1QtWVv7wdMEMp-151" value="V(m,1)" style="whiteSpace=wrap;html=1;aspect=fixed;fontSize=10;" vertex="1" parent="WIyWlLk6GJQsqaUBKTNV-1">
          <mxGeometry x="-350" y="2530" width="40" height="40" as="geometry" />
        </mxCell>
        <mxCell id="4T8bIbX1QtWVv7wdMEMp-152" value="" style="endArrow=none;dashed=1;html=1;dashPattern=1 3;strokeWidth=2;rounded=0;fontSize=10;" edge="1" parent="WIyWlLk6GJQsqaUBKTNV-1">
          <mxGeometry width="50" height="50" relative="1" as="geometry">
            <mxPoint x="40" y="2150" as="sourcePoint" />
            <mxPoint x="-190" y="2150" as="targetPoint" />
          </mxGeometry>
        </mxCell>
        <mxCell id="4T8bIbX1QtWVv7wdMEMp-153" value="V(1,d/k)" style="whiteSpace=wrap;html=1;aspect=fixed;fontSize=10;" vertex="1" parent="WIyWlLk6GJQsqaUBKTNV-1">
          <mxGeometry x="50" y="2130" width="40" height="40" as="geometry" />
        </mxCell>
        <mxCell id="4T8bIbX1QtWVv7wdMEMp-154" value="V(m,d/k)" style="whiteSpace=wrap;html=1;aspect=fixed;fontSize=10;" vertex="1" parent="WIyWlLk6GJQsqaUBKTNV-1">
          <mxGeometry x="50" y="2530" width="40" height="40" as="geometry" />
        </mxCell>
        <mxCell id="4T8bIbX1QtWVv7wdMEMp-156" value="V(2,2)" style="whiteSpace=wrap;html=1;aspect=fixed;fontSize=10;" vertex="1" parent="WIyWlLk6GJQsqaUBKTNV-1">
          <mxGeometry x="-300" y="2180" width="40" height="40" as="geometry" />
        </mxCell>
        <mxCell id="4T8bIbX1QtWVv7wdMEMp-157" value="V(2,3)" style="whiteSpace=wrap;html=1;aspect=fixed;fontSize=10;" vertex="1" parent="WIyWlLk6GJQsqaUBKTNV-1">
          <mxGeometry x="-250" y="2180" width="40" height="40" as="geometry" />
        </mxCell>
        <mxCell id="4T8bIbX1QtWVv7wdMEMp-158" value="V(3,2)" style="whiteSpace=wrap;html=1;aspect=fixed;fontSize=10;" vertex="1" parent="WIyWlLk6GJQsqaUBKTNV-1">
          <mxGeometry x="-300" y="2230" width="40" height="40" as="geometry" />
        </mxCell>
        <mxCell id="4T8bIbX1QtWVv7wdMEMp-159" value="V(3,3)" style="whiteSpace=wrap;html=1;aspect=fixed;fontSize=10;" vertex="1" parent="WIyWlLk6GJQsqaUBKTNV-1">
          <mxGeometry x="-250" y="2230" width="40" height="40" as="geometry" />
        </mxCell>
        <mxCell id="4T8bIbX1QtWVv7wdMEMp-160" value="" style="endArrow=none;dashed=1;html=1;dashPattern=1 3;strokeWidth=2;rounded=0;fontSize=10;" edge="1" parent="WIyWlLk6GJQsqaUBKTNV-1">
          <mxGeometry width="50" height="50" relative="1" as="geometry">
            <mxPoint x="70" y="2510" as="sourcePoint" />
            <mxPoint x="70" y="2280" as="targetPoint" />
          </mxGeometry>
        </mxCell>
        <mxCell id="4T8bIbX1QtWVv7wdMEMp-161" value="" style="endArrow=none;dashed=1;html=1;dashPattern=1 3;strokeWidth=2;rounded=0;fontSize=10;" edge="1" parent="WIyWlLk6GJQsqaUBKTNV-1">
          <mxGeometry width="50" height="50" relative="1" as="geometry">
            <mxPoint x="40" y="2530" as="sourcePoint" />
            <mxPoint x="-200" y="2270" as="targetPoint" />
          </mxGeometry>
        </mxCell>
        <mxCell id="4T8bIbX1QtWVv7wdMEMp-162" value="" style="endArrow=none;dashed=1;html=1;dashPattern=1 3;strokeWidth=2;rounded=0;fontSize=10;" edge="1" parent="WIyWlLk6GJQsqaUBKTNV-1">
          <mxGeometry width="50" height="50" relative="1" as="geometry">
            <mxPoint x="40" y="2199.5" as="sourcePoint" />
            <mxPoint x="-190" y="2199.5" as="targetPoint" />
          </mxGeometry>
        </mxCell>
        <mxCell id="4T8bIbX1QtWVv7wdMEMp-163" value="" style="endArrow=none;dashed=1;html=1;dashPattern=1 3;strokeWidth=2;rounded=0;fontSize=10;" edge="1" parent="WIyWlLk6GJQsqaUBKTNV-1">
          <mxGeometry width="50" height="50" relative="1" as="geometry">
            <mxPoint x="40" y="2249.5" as="sourcePoint" />
            <mxPoint x="-190" y="2249.5" as="targetPoint" />
          </mxGeometry>
        </mxCell>
        <mxCell id="4T8bIbX1QtWVv7wdMEMp-164" value="V(2,d/k)" style="whiteSpace=wrap;html=1;aspect=fixed;fontSize=10;" vertex="1" parent="WIyWlLk6GJQsqaUBKTNV-1">
          <mxGeometry x="50" y="2180" width="40" height="40" as="geometry" />
        </mxCell>
        <mxCell id="4T8bIbX1QtWVv7wdMEMp-165" value="V(3,d/k)" style="whiteSpace=wrap;html=1;aspect=fixed;fontSize=10;" vertex="1" parent="WIyWlLk6GJQsqaUBKTNV-1">
          <mxGeometry x="50" y="2230" width="40" height="40" as="geometry" />
        </mxCell>
        <mxCell id="4T8bIbX1QtWVv7wdMEMp-166" value="&lt;font style=&quot;font-size: 18px;&quot;&gt;V(1,d/k) = [H(1)] * [W_V(d/k)]&lt;br&gt;&amp;nbsp;V(m,d/k) = [H(m)] * [W_V(d/k)]&lt;br&gt;&lt;br&gt;H와 W_V를 내적하기: &lt;br&gt;W_V를 transpose &amp;gt; H와 요소곱 &amp;gt; 모든 요소 더하기&lt;/font&gt;" style="text;html=1;strokeColor=none;fillColor=none;align=center;verticalAlign=middle;whiteSpace=wrap;rounded=0;" vertex="1" parent="WIyWlLk6GJQsqaUBKTNV-1">
          <mxGeometry x="-340" y="2593" width="460" height="107" as="geometry" />
        </mxCell>
        <mxCell id="4T8bIbX1QtWVv7wdMEMp-167" value="" style="endArrow=classic;html=1;rounded=0;" edge="1" parent="WIyWlLk6GJQsqaUBKTNV-1">
          <mxGeometry width="50" height="50" relative="1" as="geometry">
            <mxPoint x="110" y="2160" as="sourcePoint" />
            <mxPoint x="170" y="2160" as="targetPoint" />
            <Array as="points">
              <mxPoint x="140" y="2160" />
            </Array>
          </mxGeometry>
        </mxCell>
        <mxCell id="4T8bIbX1QtWVv7wdMEMp-168" value="" style="endArrow=classic;html=1;rounded=0;" edge="1" parent="WIyWlLk6GJQsqaUBKTNV-1">
          <mxGeometry width="50" height="50" relative="1" as="geometry">
            <mxPoint x="110" y="2520" as="sourcePoint" />
            <mxPoint x="170" y="2520" as="targetPoint" />
          </mxGeometry>
        </mxCell>
        <mxCell id="4T8bIbX1QtWVv7wdMEMp-169" value="" style="endArrow=classic;html=1;rounded=0;" edge="1" parent="WIyWlLk6GJQsqaUBKTNV-1">
          <mxGeometry width="50" height="50" relative="1" as="geometry">
            <mxPoint x="110" y="2400" as="sourcePoint" />
            <mxPoint x="170" y="2400" as="targetPoint" />
          </mxGeometry>
        </mxCell>
        <mxCell id="4T8bIbX1QtWVv7wdMEMp-170" value="" style="endArrow=classic;html=1;rounded=0;" edge="1" parent="WIyWlLk6GJQsqaUBKTNV-1">
          <mxGeometry width="50" height="50" relative="1" as="geometry">
            <mxPoint x="110" y="2280" as="sourcePoint" />
            <mxPoint x="170" y="2280" as="targetPoint" />
          </mxGeometry>
        </mxCell>
        <mxCell id="4T8bIbX1QtWVv7wdMEMp-171" value="&lt;font style=&quot;font-size: 24px;&quot;&gt;bias V&lt;/font&gt;" style="rounded=0;whiteSpace=wrap;html=1;" vertex="1" parent="WIyWlLk6GJQsqaUBKTNV-1">
          <mxGeometry x="200" y="1970" width="80" height="50" as="geometry" />
        </mxCell>
        <mxCell id="4T8bIbX1QtWVv7wdMEMp-172" value="" style="endArrow=classic;html=1;rounded=0;" edge="1" parent="WIyWlLk6GJQsqaUBKTNV-1">
          <mxGeometry width="50" height="50" relative="1" as="geometry">
            <mxPoint x="239.5" y="2040" as="sourcePoint" />
            <mxPoint x="239.5" y="2100" as="targetPoint" />
          </mxGeometry>
        </mxCell>
        <mxCell id="4T8bIbX1QtWVv7wdMEMp-173" value="" style="shape=orEllipse;perimeter=ellipsePerimeter;whiteSpace=wrap;html=1;backgroundOutline=1;" vertex="1" parent="WIyWlLk6GJQsqaUBKTNV-1">
          <mxGeometry x="200" y="2120" width="80" height="80" as="geometry" />
        </mxCell>
        <mxCell id="4T8bIbX1QtWVv7wdMEMp-174" value="" style="shape=orEllipse;perimeter=ellipsePerimeter;whiteSpace=wrap;html=1;backgroundOutline=1;" vertex="1" parent="WIyWlLk6GJQsqaUBKTNV-1">
          <mxGeometry x="200" y="2240" width="80" height="80" as="geometry" />
        </mxCell>
        <mxCell id="4T8bIbX1QtWVv7wdMEMp-175" value="" style="shape=orEllipse;perimeter=ellipsePerimeter;whiteSpace=wrap;html=1;backgroundOutline=1;" vertex="1" parent="WIyWlLk6GJQsqaUBKTNV-1">
          <mxGeometry x="200" y="2370" width="80" height="80" as="geometry" />
        </mxCell>
        <mxCell id="4T8bIbX1QtWVv7wdMEMp-176" value="" style="shape=orEllipse;perimeter=ellipsePerimeter;whiteSpace=wrap;html=1;backgroundOutline=1;" vertex="1" parent="WIyWlLk6GJQsqaUBKTNV-1">
          <mxGeometry x="200" y="2480" width="80" height="80" as="geometry" />
        </mxCell>
        <mxCell id="4T8bIbX1QtWVv7wdMEMp-180" value="" style="endArrow=none;html=1;rounded=0;" edge="1" parent="WIyWlLk6GJQsqaUBKTNV-1">
          <mxGeometry width="50" height="50" relative="1" as="geometry">
            <mxPoint x="280" y="2159.17" as="sourcePoint" />
            <mxPoint x="630" y="2159.67" as="targetPoint" />
          </mxGeometry>
        </mxCell>
        <mxCell id="4T8bIbX1QtWVv7wdMEMp-182" value="" style="endArrow=classic;html=1;rounded=0;" edge="1" parent="WIyWlLk6GJQsqaUBKTNV-1">
          <mxGeometry width="50" height="50" relative="1" as="geometry">
            <mxPoint x="629" y="2240" as="sourcePoint" />
            <mxPoint x="628.75" y="610" as="targetPoint" />
          </mxGeometry>
        </mxCell>
        <mxCell id="4T8bIbX1QtWVv7wdMEMp-183" value="&lt;font style=&quot;font-size: 18px;&quot;&gt;&lt;b&gt;* H(m) : H행렬 m행의 요소 = d개&lt;br&gt;* W_Q(d/k) : W_Q 행렬 d/k열의 요소 = d개&lt;/b&gt;&lt;/font&gt;" style="text;html=1;strokeColor=none;fillColor=none;align=center;verticalAlign=middle;whiteSpace=wrap;rounded=0;" vertex="1" parent="WIyWlLk6GJQsqaUBKTNV-1">
          <mxGeometry x="-780" y="680" width="350" height="50" as="geometry" />
        </mxCell>
        <mxCell id="4T8bIbX1QtWVv7wdMEMp-184" value="&lt;font style=&quot;font-size: 18px;&quot;&gt;&lt;b&gt;* H(m) : H행렬 m행의 요소 = d개&lt;br&gt;* W_V(d/k) : W_V 행렬 d/k열의 요소 = d개&lt;/b&gt;&lt;/font&gt;" style="text;html=1;strokeColor=none;fillColor=none;align=center;verticalAlign=middle;whiteSpace=wrap;rounded=0;" vertex="1" parent="WIyWlLk6GJQsqaUBKTNV-1">
          <mxGeometry x="-740" y="2593" width="350" height="50" as="geometry" />
        </mxCell>
        <mxCell id="4T8bIbX1QtWVv7wdMEMp-185" value="&lt;font style=&quot;font-size: 48px;&quot;&gt;H(mxd)&lt;/font&gt;" style="text;html=1;strokeColor=none;fillColor=none;align=center;verticalAlign=middle;whiteSpace=wrap;rounded=0;" vertex="1" parent="WIyWlLk6GJQsqaUBKTNV-1">
          <mxGeometry x="-1320" y="345" width="270" height="100" as="geometry" />
        </mxCell>
        <mxCell id="4T8bIbX1QtWVv7wdMEMp-186" value="" style="endArrow=classic;html=1;rounded=0;" edge="1" parent="WIyWlLk6GJQsqaUBKTNV-1">
          <mxGeometry width="50" height="50" relative="1" as="geometry">
            <mxPoint x="-1090" y="400" as="sourcePoint" />
            <mxPoint x="-770" y="400" as="targetPoint" />
          </mxGeometry>
        </mxCell>
        <mxCell id="4T8bIbX1QtWVv7wdMEMp-187" value="" style="endArrow=none;html=1;rounded=0;" edge="1" parent="WIyWlLk6GJQsqaUBKTNV-1">
          <mxGeometry width="50" height="50" relative="1" as="geometry">
            <mxPoint x="-920" y="2350" as="sourcePoint" />
            <mxPoint x="-920" y="400" as="targetPoint" />
          </mxGeometry>
        </mxCell>
        <mxCell id="4T8bIbX1QtWVv7wdMEMp-188" value="" style="endArrow=classic;html=1;rounded=0;" edge="1" parent="WIyWlLk6GJQsqaUBKTNV-1">
          <mxGeometry width="50" height="50" relative="1" as="geometry">
            <mxPoint x="-920" y="1399.5" as="sourcePoint" />
            <mxPoint x="-740" y="1400" as="targetPoint" />
          </mxGeometry>
        </mxCell>
        <mxCell id="4T8bIbX1QtWVv7wdMEMp-189" value="" style="endArrow=classic;html=1;rounded=0;" edge="1" parent="WIyWlLk6GJQsqaUBKTNV-1">
          <mxGeometry width="50" height="50" relative="1" as="geometry">
            <mxPoint x="-920" y="2349.17" as="sourcePoint" />
            <mxPoint x="-740" y="2349.67" as="targetPoint" />
          </mxGeometry>
        </mxCell>
        <mxCell id="4T8bIbX1QtWVv7wdMEMp-190" value="&lt;span style=&quot;font-size: 18px;&quot;&gt;&lt;b&gt;* 한 행씩&amp;nbsp; m번 계산하기&lt;/b&gt;&lt;/span&gt;" style="text;html=1;strokeColor=none;fillColor=none;align=center;verticalAlign=middle;whiteSpace=wrap;rounded=0;" vertex="1" parent="WIyWlLk6GJQsqaUBKTNV-1">
          <mxGeometry x="310" y="2226.5" width="270" height="73.5" as="geometry" />
        </mxCell>
        <mxCell id="4T8bIbX1QtWVv7wdMEMp-192" value="" style="endArrow=classic;html=1;rounded=0;" edge="1" parent="WIyWlLk6GJQsqaUBKTNV-1">
          <mxGeometry width="50" height="50" relative="1" as="geometry">
            <mxPoint x="810" y="410" as="sourcePoint" />
            <mxPoint x="1050" y="410" as="targetPoint" />
          </mxGeometry>
        </mxCell>
        <mxCell id="4T8bIbX1QtWVv7wdMEMp-196" value="" style="endArrow=classic;html=1;rounded=0;" edge="1" parent="WIyWlLk6GJQsqaUBKTNV-1">
          <mxGeometry width="50" height="50" relative="1" as="geometry">
            <mxPoint x="-360" y="2710" as="sourcePoint" />
            <mxPoint x="-360" y="2830" as="targetPoint" />
          </mxGeometry>
        </mxCell>
        <mxCell id="4T8bIbX1QtWVv7wdMEMp-197" value="&lt;font style=&quot;font-size: 72px;&quot;&gt;HEAD&lt;/font&gt;" style="rounded=0;whiteSpace=wrap;html=1;" vertex="1" parent="WIyWlLk6GJQsqaUBKTNV-1">
          <mxGeometry x="-560" y="2840" width="400" height="210" as="geometry" />
        </mxCell>
        <mxCell id="4T8bIbX1QtWVv7wdMEMp-198" value="" style="endArrow=none;dashed=1;html=1;dashPattern=1 3;strokeWidth=2;rounded=0;fontSize=10;" edge="1" parent="WIyWlLk6GJQsqaUBKTNV-1">
          <mxGeometry width="50" height="50" relative="1" as="geometry">
            <mxPoint x="-5" y="619.81" as="sourcePoint" />
            <mxPoint x="-235" y="619.81" as="targetPoint" />
          </mxGeometry>
        </mxCell>
        <mxCell id="4T8bIbX1QtWVv7wdMEMp-199" value="Q(m,2)" style="whiteSpace=wrap;html=1;aspect=fixed;fontSize=10;" vertex="1" parent="WIyWlLk6GJQsqaUBKTNV-1">
          <mxGeometry x="-350" y="600" width="40" height="40" as="geometry" />
        </mxCell>
        <mxCell id="4T8bIbX1QtWVv7wdMEMp-200" value="Q(m,3)" style="whiteSpace=wrap;html=1;aspect=fixed;fontSize=10;" vertex="1" parent="WIyWlLk6GJQsqaUBKTNV-1">
          <mxGeometry x="-300" y="600" width="40" height="40" as="geometry" />
        </mxCell>
        <mxCell id="4T8bIbX1QtWVv7wdMEMp-201" value="" style="endArrow=none;dashed=1;html=1;dashPattern=1 3;strokeWidth=2;rounded=0;fontSize=10;" edge="1" parent="WIyWlLk6GJQsqaUBKTNV-1">
          <mxGeometry width="50" height="50" relative="1" as="geometry">
            <mxPoint x="30" y="1599.6" as="sourcePoint" />
            <mxPoint x="-200" y="1599.6" as="targetPoint" />
          </mxGeometry>
        </mxCell>
        <mxCell id="4T8bIbX1QtWVv7wdMEMp-202" value="Q(m,2)" style="whiteSpace=wrap;html=1;aspect=fixed;fontSize=10;" vertex="1" parent="WIyWlLk6GJQsqaUBKTNV-1">
          <mxGeometry x="-310" y="1580" width="40" height="40" as="geometry" />
        </mxCell>
        <mxCell id="4T8bIbX1QtWVv7wdMEMp-203" value="Q(m,3)" style="whiteSpace=wrap;html=1;aspect=fixed;fontSize=10;" vertex="1" parent="WIyWlLk6GJQsqaUBKTNV-1">
          <mxGeometry x="-260" y="1580" width="40" height="40" as="geometry" />
        </mxCell>
        <mxCell id="4T8bIbX1QtWVv7wdMEMp-204" value="" style="endArrow=none;dashed=1;html=1;dashPattern=1 3;strokeWidth=2;rounded=0;fontSize=10;" edge="1" parent="WIyWlLk6GJQsqaUBKTNV-1">
          <mxGeometry width="50" height="50" relative="1" as="geometry">
            <mxPoint x="40" y="2549.6" as="sourcePoint" />
            <mxPoint x="-190" y="2549.6" as="targetPoint" />
          </mxGeometry>
        </mxCell>
        <mxCell id="4T8bIbX1QtWVv7wdMEMp-205" value="V(m,2)" style="whiteSpace=wrap;html=1;aspect=fixed;fontSize=10;" vertex="1" parent="WIyWlLk6GJQsqaUBKTNV-1">
          <mxGeometry x="-300" y="2530" width="40" height="40" as="geometry" />
        </mxCell>
        <mxCell id="4T8bIbX1QtWVv7wdMEMp-206" value="V(m,3)" style="whiteSpace=wrap;html=1;aspect=fixed;fontSize=10;" vertex="1" parent="WIyWlLk6GJQsqaUBKTNV-1">
          <mxGeometry x="-250" y="2530" width="40" height="40" as="geometry" />
        </mxCell>
        <mxCell id="4T8bIbX1QtWVv7wdMEMp-207" value="" style="endArrow=none;dashed=1;html=1;dashPattern=1 3;strokeWidth=2;rounded=0;fontSize=10;" edge="1" parent="WIyWlLk6GJQsqaUBKTNV-1">
          <mxGeometry width="50" height="50" relative="1" as="geometry">
            <mxPoint x="-279.9" y="2520" as="sourcePoint" />
            <mxPoint x="-280.4" y="2280" as="targetPoint" />
          </mxGeometry>
        </mxCell>
        <mxCell id="4T8bIbX1QtWVv7wdMEMp-208" value="" style="endArrow=none;dashed=1;html=1;dashPattern=1 3;strokeWidth=2;rounded=0;fontSize=10;" edge="1" parent="WIyWlLk6GJQsqaUBKTNV-1">
          <mxGeometry width="50" height="50" relative="1" as="geometry">
            <mxPoint x="-229.9" y="2520" as="sourcePoint" />
            <mxPoint x="-230.4" y="2280" as="targetPoint" />
          </mxGeometry>
        </mxCell>
        <mxCell id="4T8bIbX1QtWVv7wdMEMp-209" value="" style="endArrow=none;dashed=1;html=1;dashPattern=1 3;strokeWidth=2;rounded=0;fontSize=10;" edge="1" parent="WIyWlLk6GJQsqaUBKTNV-1">
          <mxGeometry width="50" height="50" relative="1" as="geometry">
            <mxPoint x="-289.9" y="1570" as="sourcePoint" />
            <mxPoint x="-290.4" y="1330" as="targetPoint" />
          </mxGeometry>
        </mxCell>
        <mxCell id="4T8bIbX1QtWVv7wdMEMp-210" value="" style="endArrow=none;dashed=1;html=1;dashPattern=1 3;strokeWidth=2;rounded=0;fontSize=10;" edge="1" parent="WIyWlLk6GJQsqaUBKTNV-1">
          <mxGeometry width="50" height="50" relative="1" as="geometry">
            <mxPoint x="-239.9" y="1570" as="sourcePoint" />
            <mxPoint x="-240.4" y="1330" as="targetPoint" />
          </mxGeometry>
        </mxCell>
        <mxCell id="4T8bIbX1QtWVv7wdMEMp-212" value="" style="endArrow=none;dashed=1;html=1;dashPattern=1 3;strokeWidth=2;rounded=0;fontSize=10;" edge="1" parent="WIyWlLk6GJQsqaUBKTNV-1">
          <mxGeometry width="50" height="50" relative="1" as="geometry">
            <mxPoint x="-329.9" y="590" as="sourcePoint" />
            <mxPoint x="-330.4" y="350" as="targetPoint" />
          </mxGeometry>
        </mxCell>
        <mxCell id="4T8bIbX1QtWVv7wdMEMp-213" value="" style="endArrow=none;dashed=1;html=1;dashPattern=1 3;strokeWidth=2;rounded=0;fontSize=10;" edge="1" parent="WIyWlLk6GJQsqaUBKTNV-1">
          <mxGeometry width="50" height="50" relative="1" as="geometry">
            <mxPoint x="-279.9" y="590" as="sourcePoint" />
            <mxPoint x="-280.4" y="350" as="targetPoint" />
          </mxGeometry>
        </mxCell>
        <mxCell id="BP67Da7mLbQ1aucq8AcZ-1" value="" style="shape=link;html=1;rounded=0;" edge="1" parent="WIyWlLk6GJQsqaUBKTNV-1">
          <mxGeometry width="100" relative="1" as="geometry">
            <mxPoint x="-230" y="1330" as="sourcePoint" />
            <mxPoint x="-130" y="1330" as="targetPoint" />
          </mxGeometry>
        </mxCell>
      </root>
    </mxGraphModel>
  </diagram>
</mxfile>
